<mxfile host="65bd71144e">
    <diagram id="BGxZjymmbB8URUE8t3aJ" name="Page-1">
        <mxGraphModel dx="717" dy="1815" grid="1" gridSize="10" guides="1" tooltips="1" connect="1" arrows="1" fold="1" page="1" pageScale="1" pageWidth="850" pageHeight="1100" math="0" shadow="0">
            <root>
                <mxCell id="0"/>
                <mxCell id="1" parent="0"/>
                <mxCell id="166" value="" style="rounded=0;whiteSpace=wrap;html=1;strokeColor=none;" parent="1" vertex="1">
                    <mxGeometry y="-100" width="1490" height="1450" as="geometry"/>
                </mxCell>
                <mxCell id="12" value="" style="shape=ext;double=1;rounded=0;whiteSpace=wrap;html=1;" parent="1" vertex="1">
                    <mxGeometry x="260" y="-70" width="1170" height="1390" as="geometry"/>
                </mxCell>
                <mxCell id="146" value="" style="rounded=0;whiteSpace=wrap;html=1;" parent="1" vertex="1">
                    <mxGeometry x="280" y="40" width="230" height="140" as="geometry"/>
                </mxCell>
                <mxCell id="137" value="" style="rounded=0;whiteSpace=wrap;html=1;" parent="1" vertex="1">
                    <mxGeometry x="280" y="655" width="190" height="187" as="geometry"/>
                </mxCell>
                <mxCell id="20" value="" style="rounded=0;whiteSpace=wrap;html=1;" parent="1" vertex="1">
                    <mxGeometry x="280" y="195" width="230" height="420" as="geometry"/>
                </mxCell>
                <mxCell id="28" value="" style="rounded=0;whiteSpace=wrap;html=1;fontSize=16;" parent="1" vertex="1">
                    <mxGeometry x="320" y="235" width="160" height="145" as="geometry"/>
                </mxCell>
                <mxCell id="2" value="App Startup&lt;br&gt;app.main(argc, argv)" style="ellipse;shape=doubleEllipse;whiteSpace=wrap;html=1;" parent="1" vertex="1">
                    <mxGeometry x="10" y="-50" width="210" height="80" as="geometry"/>
                </mxCell>
                <mxCell id="11" value="setupConfig()" style="rounded=0;whiteSpace=wrap;html=1;" parent="1" vertex="1">
                    <mxGeometry x="355" y="269" width="100" height="27" as="geometry"/>
                </mxCell>
                <mxCell id="13" value="do help?" style="rhombus;whiteSpace=wrap;html=1;" parent="1" vertex="1">
                    <mxGeometry x="362.5" y="425" width="75" height="60" as="geometry"/>
                </mxCell>
                <mxCell id="16" value="show help" style="rounded=0;whiteSpace=wrap;html=1;" parent="1" vertex="1">
                    <mxGeometry x="300" y="499" width="80" height="30" as="geometry"/>
                </mxCell>
                <mxCell id="19" value="execute()" style="rounded=0;whiteSpace=wrap;html=1;" parent="1" vertex="1">
                    <mxGeometry x="351.5" y="550" width="100" height="40" as="geometry"/>
                </mxCell>
                <mxCell id="21" value="derivedT::setupConfig()" style="rounded=0;whiteSpace=wrap;html=1;" parent="1" vertex="1">
                    <mxGeometry x="1240" y="-36" width="172.5" height="36" as="geometry"/>
                </mxCell>
                <mxCell id="22" value="derivedT::loadConfig()" style="rounded=0;whiteSpace=wrap;html=1;" parent="1" vertex="1">
                    <mxGeometry x="1240" y="30" width="172.5" height="36" as="geometry"/>
                </mxCell>
                <mxCell id="26" value="loadConfig()" style="rounded=0;whiteSpace=wrap;html=1;" parent="1" vertex="1">
                    <mxGeometry x="355" y="306" width="100" height="24" as="geometry"/>
                </mxCell>
                <mxCell id="29" value="" style="endArrow=classic;html=1;strokeWidth=2;fontSize=16;entryX=0;entryY=0.5;entryDx=0;entryDy=0;exitX=1;exitY=0.5;exitDx=0;exitDy=0;dashed=1;" parent="1" source="11" target="21" edge="1">
                    <mxGeometry width="50" height="50" relative="1" as="geometry">
                        <mxPoint x="410" y="485" as="sourcePoint"/>
                        <mxPoint x="460" y="435" as="targetPoint"/>
                        <Array as="points">
                            <mxPoint x="530" y="-20"/>
                            <mxPoint x="850" y="-20"/>
                        </Array>
                    </mxGeometry>
                </mxCell>
                <mxCell id="30" value="" style="endArrow=classic;html=1;strokeWidth=2;fontSize=16;entryX=0;entryY=0.5;entryDx=0;entryDy=0;exitX=1;exitY=0.5;exitDx=0;exitDy=0;dashed=1;" parent="1" source="26" target="22" edge="1">
                    <mxGeometry width="50" height="50" relative="1" as="geometry">
                        <mxPoint x="490" y="405" as="sourcePoint"/>
                        <mxPoint x="540" y="355" as="targetPoint"/>
                        <Array as="points">
                            <mxPoint x="540" y="48"/>
                            <mxPoint x="880" y="50"/>
                        </Array>
                    </mxGeometry>
                </mxCell>
                <mxCell id="31" value="exit" style="rounded=1;whiteSpace=wrap;html=1;fontSize=16;" parent="1" vertex="1">
                    <mxGeometry x="45" y="569" width="120" height="60" as="geometry"/>
                </mxCell>
                <mxCell id="33" value="" style="edgeStyle=segmentEdgeStyle;endArrow=classic;html=1;curved=0;rounded=0;endSize=8;startSize=8;strokeWidth=2;fontSize=16;exitX=0;exitY=0.5;exitDx=0;exitDy=0;entryX=0.5;entryY=0;entryDx=0;entryDy=0;" parent="1" source="13" target="16" edge="1">
                    <mxGeometry width="50" height="50" relative="1" as="geometry">
                        <mxPoint x="410" y="365" as="sourcePoint"/>
                        <mxPoint x="460" y="315" as="targetPoint"/>
                    </mxGeometry>
                </mxCell>
                <mxCell id="64" value="Y" style="edgeLabel;html=1;align=center;verticalAlign=middle;resizable=0;points=[];fontSize=14;" parent="33" vertex="1" connectable="0">
                    <mxGeometry x="-0.1271" y="-1" relative="1" as="geometry">
                        <mxPoint as="offset"/>
                    </mxGeometry>
                </mxCell>
                <mxCell id="34" value="" style="edgeStyle=segmentEdgeStyle;endArrow=classic;html=1;curved=0;rounded=0;endSize=8;startSize=8;strokeWidth=2;fontSize=16;exitX=0.5;exitY=1;exitDx=0;exitDy=0;entryX=0.5;entryY=0;entryDx=0;entryDy=0;" parent="1" source="96" target="11" edge="1">
                    <mxGeometry width="50" height="50" relative="1" as="geometry">
                        <mxPoint x="410" y="365" as="sourcePoint"/>
                        <mxPoint x="460" y="315" as="targetPoint"/>
                    </mxGeometry>
                </mxCell>
                <mxCell id="38" value="" style="endArrow=classic;html=1;strokeWidth=2;fontSize=16;exitX=0.5;exitY=1;exitDx=0;exitDy=0;entryX=0.5;entryY=0;entryDx=0;entryDy=0;" parent="1" source="28" target="13" edge="1">
                    <mxGeometry width="50" height="50" relative="1" as="geometry">
                        <mxPoint x="410" y="365" as="sourcePoint"/>
                        <mxPoint x="460" y="315" as="targetPoint"/>
                    </mxGeometry>
                </mxCell>
                <mxCell id="40" value="" style="endArrow=classic;html=1;strokeWidth=2;fontSize=16;exitX=0.5;exitY=1;exitDx=0;exitDy=0;entryX=0.5;entryY=0;entryDx=0;entryDy=0;" parent="1" source="13" target="19" edge="1">
                    <mxGeometry width="50" height="50" relative="1" as="geometry">
                        <mxPoint x="470" y="495" as="sourcePoint"/>
                        <mxPoint x="520" y="445" as="targetPoint"/>
                    </mxGeometry>
                </mxCell>
                <mxCell id="65" value="N" style="edgeLabel;html=1;align=center;verticalAlign=middle;resizable=0;points=[];fontSize=14;" parent="40" vertex="1" connectable="0">
                    <mxGeometry x="-0.2647" y="-2" relative="1" as="geometry">
                        <mxPoint as="offset"/>
                    </mxGeometry>
                </mxCell>
                <mxCell id="41" value="&lt;h1 style=&quot;&quot;&gt;&lt;font style=&quot;font-size: 14px;&quot;&gt;setup()&lt;/font&gt;&lt;/h1&gt;" style="text;html=1;strokeColor=none;fillColor=none;spacing=5;spacingTop=-20;whiteSpace=wrap;overflow=hidden;rounded=0;horizontal=1;" parent="1" vertex="1">
                    <mxGeometry x="320" y="223" width="85" height="42" as="geometry"/>
                </mxCell>
                <mxCell id="43" value="" style="rounded=0;whiteSpace=wrap;html=1;fontSize=14;" parent="1" vertex="1">
                    <mxGeometry x="551.75" y="117" width="636.5" height="1160" as="geometry"/>
                </mxCell>
                <mxCell id="44" value="" style="edgeStyle=segmentEdgeStyle;endArrow=classic;html=1;curved=0;rounded=0;endSize=8;startSize=8;strokeWidth=2;fontSize=14;exitX=0;exitY=0.5;exitDx=0;exitDy=0;entryX=0.5;entryY=0;entryDx=0;entryDy=0;" parent="1" source="16" target="31" edge="1">
                    <mxGeometry width="50" height="50" relative="1" as="geometry">
                        <mxPoint x="330" y="525" as="sourcePoint"/>
                        <mxPoint x="105" y="605" as="targetPoint"/>
                    </mxGeometry>
                </mxCell>
                <mxCell id="48" value="lock PID" style="rounded=0;whiteSpace=wrap;html=1;fontSize=14;" parent="1" vertex="1">
                    <mxGeometry x="758" y="129" width="120" height="20" as="geometry"/>
                </mxCell>
                <mxCell id="49" value="start logging" style="rounded=0;whiteSpace=wrap;html=1;fontSize=14;" parent="1" vertex="1">
                    <mxGeometry x="758" y="249" width="120" height="30" as="geometry"/>
                </mxCell>
                <mxCell id="50" value="start INDI" style="rounded=0;whiteSpace=wrap;html=1;fontSize=14;" parent="1" vertex="1">
                    <mxGeometry x="758" y="499" width="120" height="30" as="geometry"/>
                </mxCell>
                <mxCell id="51" value="PID locked?" style="rhombus;whiteSpace=wrap;html=1;fontSize=14;" parent="1" vertex="1">
                    <mxGeometry x="768" y="177" width="100" height="50" as="geometry"/>
                </mxCell>
                <mxCell id="52" value="logging?" style="rhombus;whiteSpace=wrap;html=1;fontSize=14;" parent="1" vertex="1">
                    <mxGeometry x="768" y="304" width="100" height="50" as="geometry"/>
                </mxCell>
                <mxCell id="55" value="shutdown?" style="rhombus;whiteSpace=wrap;html=1;fontSize=14;strokeColor=#80FF00;strokeWidth=2;" parent="1" vertex="1">
                    <mxGeometry x="910.5" y="1018" width="115" height="60" as="geometry"/>
                </mxCell>
                <mxCell id="67" value="power&lt;br&gt;off?" style="rhombus;whiteSpace=wrap;html=1;fontSize=14;strokeColor=#80FF00;strokeWidth=2;" parent="1" vertex="1">
                    <mxGeometry x="758" y="636" width="120" height="80" as="geometry"/>
                </mxCell>
                <mxCell id="68" value="state::&lt;br&gt;POWERON?" style="rhombus;whiteSpace=wrap;html=1;fontSize=14;" parent="1" vertex="1">
                    <mxGeometry x="755.5" y="761" width="130" height="90" as="geometry"/>
                </mxCell>
                <mxCell id="69" value="onPowerOff()" style="rounded=0;whiteSpace=wrap;html=1;fontSize=14;" parent="1" vertex="1">
                    <mxGeometry x="758" y="944" width="120" height="27" as="geometry"/>
                </mxCell>
                <mxCell id="71" value="whilePowerOff()" style="rounded=0;whiteSpace=wrap;html=1;fontSize=14;" parent="1" vertex="1">
                    <mxGeometry x="908" y="821" width="120" height="30" as="geometry"/>
                </mxCell>
                <mxCell id="72" value="appLogic()" style="rounded=0;whiteSpace=wrap;html=1;fontSize=14;strokeColor=#80FF00;strokeWidth=2;" parent="1" vertex="1">
                    <mxGeometry x="1058" y="788" width="120" height="30" as="geometry"/>
                </mxCell>
                <mxCell id="73" value="appStartup()" style="rounded=0;whiteSpace=wrap;html=1;fontSize=14;" parent="1" vertex="1">
                    <mxGeometry x="758" y="439" width="120" height="36" as="geometry"/>
                </mxCell>
                <mxCell id="74" value="appShutdown()" style="rounded=0;whiteSpace=wrap;html=1;fontSize=14;" parent="1" vertex="1">
                    <mxGeometry x="908" y="1106" width="120" height="30" as="geometry"/>
                </mxCell>
                <mxCell id="77" value="state::POWEROFF" style="shape=hexagon;perimeter=hexagonPerimeter2;whiteSpace=wrap;html=1;fixedSize=1;fontSize=14;" parent="1" vertex="1">
                    <mxGeometry x="748" y="880" width="140" height="30" as="geometry"/>
                </mxCell>
                <mxCell id="79" value="Y" style="endArrow=classic;html=1;strokeWidth=2;fontSize=14;exitX=0.5;exitY=1;exitDx=0;exitDy=0;entryX=0.5;entryY=0;entryDx=0;entryDy=0;" parent="1" source="67" target="68" edge="1">
                    <mxGeometry width="50" height="50" relative="1" as="geometry">
                        <mxPoint x="908" y="818" as="sourcePoint"/>
                        <mxPoint x="958" y="768" as="targetPoint"/>
                    </mxGeometry>
                </mxCell>
                <mxCell id="80" value="Y" style="endArrow=none;html=1;strokeWidth=2;fontSize=14;exitX=0.5;exitY=1;exitDx=0;exitDy=0;entryX=0.5;entryY=0;entryDx=0;entryDy=0;" parent="1" source="68" target="77" edge="1">
                    <mxGeometry width="50" height="50" relative="1" as="geometry">
                        <mxPoint x="908" y="818" as="sourcePoint"/>
                        <mxPoint x="958" y="768" as="targetPoint"/>
                    </mxGeometry>
                </mxCell>
                <mxCell id="81" value="" style="endArrow=classic;html=1;strokeWidth=2;fontSize=14;exitX=0.5;exitY=1;exitDx=0;exitDy=0;entryX=0.5;entryY=0;entryDx=0;entryDy=0;" parent="1" target="69" edge="1">
                    <mxGeometry width="50" height="50" relative="1" as="geometry">
                        <mxPoint x="818" y="914" as="sourcePoint"/>
                        <mxPoint x="958" y="772" as="targetPoint"/>
                    </mxGeometry>
                </mxCell>
                <mxCell id="82" value="N" style="edgeStyle=segmentEdgeStyle;endArrow=classic;html=1;curved=0;rounded=0;endSize=8;startSize=8;strokeWidth=2;fontSize=14;exitX=1;exitY=0.5;exitDx=0;exitDy=0;entryX=0.5;entryY=0;entryDx=0;entryDy=0;" parent="1" source="68" target="71" edge="1">
                    <mxGeometry width="50" height="50" relative="1" as="geometry">
                        <mxPoint x="908" y="818" as="sourcePoint"/>
                        <mxPoint x="958" y="768" as="targetPoint"/>
                    </mxGeometry>
                </mxCell>
                <mxCell id="84" value="" style="edgeStyle=segmentEdgeStyle;endArrow=classic;html=1;curved=0;rounded=0;endSize=8;startSize=8;strokeWidth=2;fontSize=14;exitX=0.5;exitY=1;exitDx=0;exitDy=0;entryX=0.5;entryY=0;entryDx=0;entryDy=0;" parent="1" source="69" target="55" edge="1">
                    <mxGeometry width="50" height="50" relative="1" as="geometry">
                        <mxPoint x="908" y="822" as="sourcePoint"/>
                        <mxPoint x="958" y="772" as="targetPoint"/>
                        <Array as="points">
                            <mxPoint x="818" y="987"/>
                            <mxPoint x="968" y="987"/>
                        </Array>
                    </mxGeometry>
                </mxCell>
                <mxCell id="85" value="" style="endArrow=classic;html=1;strokeWidth=2;fontSize=14;exitX=0.5;exitY=1;exitDx=0;exitDy=0;entryX=0.5;entryY=0;entryDx=0;entryDy=0;" parent="1" source="71" target="55" edge="1">
                    <mxGeometry width="50" height="50" relative="1" as="geometry">
                        <mxPoint x="908" y="818" as="sourcePoint"/>
                        <mxPoint x="958" y="768" as="targetPoint"/>
                    </mxGeometry>
                </mxCell>
                <mxCell id="86" value="state::&lt;br&gt;POWEROFF?" style="rhombus;whiteSpace=wrap;html=1;fontSize=14;strokeColor=#80FF00;strokeWidth=2;" parent="1" vertex="1">
                    <mxGeometry x="928" y="626" width="130" height="90" as="geometry"/>
                </mxCell>
                <mxCell id="87" value="state::POWERON" style="shape=hexagon;perimeter=hexagonPerimeter2;whiteSpace=wrap;html=1;fixedSize=1;fontSize=14;" parent="1" vertex="1">
                    <mxGeometry x="923" y="748" width="140" height="30" as="geometry"/>
                </mxCell>
                <mxCell id="88" value="N" style="endArrow=classic;html=1;strokeWidth=4;fontSize=14;exitX=1;exitY=0.5;exitDx=0;exitDy=0;fillColor=#60a917;strokeColor=#80FF00;" parent="1" source="67" target="86" edge="1">
                    <mxGeometry width="50" height="50" relative="1" as="geometry">
                        <mxPoint x="1028" y="858" as="sourcePoint"/>
                        <mxPoint x="1078" y="808" as="targetPoint"/>
                    </mxGeometry>
                </mxCell>
                <mxCell id="91" value="" style="edgeStyle=segmentEdgeStyle;endArrow=classic;html=1;curved=0;rounded=0;endSize=8;startSize=8;strokeWidth=2;fontSize=14;exitX=1;exitY=0.5;exitDx=0;exitDy=0;entryX=0.5;entryY=0;entryDx=0;entryDy=0;" parent="1" source="87" target="72" edge="1">
                    <mxGeometry width="50" height="50" relative="1" as="geometry">
                        <mxPoint x="1028" y="858" as="sourcePoint"/>
                        <mxPoint x="1078" y="808" as="targetPoint"/>
                    </mxGeometry>
                </mxCell>
                <mxCell id="92" value="Y" style="endArrow=none;html=1;strokeWidth=2;fontSize=14;exitX=0.5;exitY=1;exitDx=0;exitDy=0;" parent="1" source="86" target="87" edge="1">
                    <mxGeometry width="50" height="50" relative="1" as="geometry">
                        <mxPoint x="1028" y="858" as="sourcePoint"/>
                        <mxPoint x="1078" y="808" as="targetPoint"/>
                    </mxGeometry>
                </mxCell>
                <mxCell id="93" value="N" style="edgeStyle=segmentEdgeStyle;endArrow=classic;html=1;curved=0;rounded=0;endSize=8;startSize=8;strokeWidth=4;fontSize=14;exitX=1;exitY=0.5;exitDx=0;exitDy=0;entryX=0.5;entryY=0;entryDx=0;entryDy=0;fillColor=#60a917;strokeColor=#80FF00;" parent="1" source="86" target="72" edge="1">
                    <mxGeometry width="50" height="50" relative="1" as="geometry">
                        <mxPoint x="1028" y="858" as="sourcePoint"/>
                        <mxPoint x="1078" y="808" as="targetPoint"/>
                    </mxGeometry>
                </mxCell>
                <mxCell id="94" value="" style="edgeStyle=segmentEdgeStyle;endArrow=classic;html=1;curved=0;rounded=0;endSize=8;startSize=8;strokeWidth=4;fontSize=14;exitX=0.5;exitY=1;exitDx=0;exitDy=0;entryX=0.5;entryY=0;entryDx=0;entryDy=0;fillColor=#60a917;strokeColor=#80FF00;" parent="1" source="72" target="55" edge="1">
                    <mxGeometry width="50" height="50" relative="1" as="geometry">
                        <mxPoint x="948" y="928" as="sourcePoint"/>
                        <mxPoint x="998" y="878" as="targetPoint"/>
                        <Array as="points">
                            <mxPoint x="1118" y="898"/>
                            <mxPoint x="968" y="898"/>
                        </Array>
                    </mxGeometry>
                </mxCell>
                <mxCell id="95" value="state::INITIALIZED" style="shape=hexagon;perimeter=hexagonPerimeter2;whiteSpace=wrap;html=1;fixedSize=1;fontSize=14;" parent="1" vertex="1">
                    <mxGeometry x="746.75" y="379" width="142.5" height="30" as="geometry"/>
                </mxCell>
                <mxCell id="96" value="state::UNINITIALIZED" style="shape=hexagon;perimeter=hexagonPerimeter2;whiteSpace=wrap;html=1;fixedSize=1;fontSize=14;" parent="1" vertex="1">
                    <mxGeometry x="321.5" y="130" width="160" height="30" as="geometry"/>
                </mxCell>
                <mxCell id="97" value="N" style="edgeStyle=segmentEdgeStyle;endArrow=classic;html=1;curved=0;rounded=0;endSize=8;startSize=8;strokeWidth=4;fontSize=14;exitX=0;exitY=0.5;exitDx=0;exitDy=0;entryX=0;entryY=0.5;entryDx=0;entryDy=0;fillColor=#60a917;strokeColor=#80FF00;" parent="1" source="55" target="67" edge="1">
                    <mxGeometry width="50" height="50" relative="1" as="geometry">
                        <mxPoint x="968" y="910" as="sourcePoint"/>
                        <mxPoint x="1018" y="860" as="targetPoint"/>
                        <Array as="points">
                            <mxPoint x="728" y="1048"/>
                            <mxPoint x="728" y="676"/>
                        </Array>
                    </mxGeometry>
                </mxCell>
                <mxCell id="100" value="INDI up?" style="rhombus;whiteSpace=wrap;html=1;fontSize=14;" parent="1" vertex="1">
                    <mxGeometry x="768" y="559" width="100" height="50" as="geometry"/>
                </mxCell>
                <mxCell id="105" style="edgeStyle=none;html=1;exitX=0;exitY=0.5;exitDx=0;exitDy=0;entryX=1;entryY=0.5;entryDx=0;entryDy=0;strokeWidth=2;fontSize=14;endArrow=classic;endFill=1;" parent="1" source="102" target="19" edge="1">
                    <mxGeometry relative="1" as="geometry">
                        <Array as="points">
                            <mxPoint x="530" y="264"/>
                            <mxPoint x="530" y="370"/>
                            <mxPoint x="530" y="470"/>
                            <mxPoint x="490" y="470"/>
                            <mxPoint x="490" y="570"/>
                        </Array>
                    </mxGeometry>
                </mxCell>
                <mxCell id="102" value="state::FAILURE" style="shape=hexagon;perimeter=hexagonPerimeter2;whiteSpace=wrap;html=1;fixedSize=1;fontSize=14;" parent="1" vertex="1">
                    <mxGeometry x="602" y="249" width="140" height="30" as="geometry"/>
                </mxCell>
                <mxCell id="103" value="N" style="edgeStyle=segmentEdgeStyle;endArrow=classic;html=1;curved=0;rounded=0;endSize=8;startSize=8;strokeWidth=2;fontSize=14;exitX=0;exitY=0.5;exitDx=0;exitDy=0;" parent="1" source="51" target="102" edge="1">
                    <mxGeometry width="50" height="50" relative="1" as="geometry">
                        <mxPoint x="792" y="459" as="sourcePoint"/>
                        <mxPoint x="842" y="409" as="targetPoint"/>
                    </mxGeometry>
                </mxCell>
                <mxCell id="111" value="state::SHUTDOWN" style="shape=hexagon;perimeter=hexagonPerimeter2;whiteSpace=wrap;html=1;fixedSize=1;fontSize=14;" parent="1" vertex="1">
                    <mxGeometry x="898" y="1166" width="140" height="30" as="geometry"/>
                </mxCell>
                <mxCell id="112" value="stop INDI" style="rounded=0;whiteSpace=wrap;html=1;fontSize=14;" parent="1" vertex="1">
                    <mxGeometry x="755.5" y="1166" width="120" height="30" as="geometry"/>
                </mxCell>
                <mxCell id="113" value="unlock PID" style="rounded=0;whiteSpace=wrap;html=1;fontSize=14;" parent="1" vertex="1">
                    <mxGeometry x="593" y="1166" width="120" height="30" as="geometry"/>
                </mxCell>
                <mxCell id="114" value="" style="endArrow=classic;html=1;exitX=0.5;exitY=1;exitDx=0;exitDy=0;entryX=0.5;entryY=0;entryDx=0;entryDy=0;strokeWidth=2;" parent="1" source="48" target="51" edge="1">
                    <mxGeometry width="50" height="50" relative="1" as="geometry">
                        <mxPoint x="722" y="259" as="sourcePoint"/>
                        <mxPoint x="772" y="209" as="targetPoint"/>
                    </mxGeometry>
                </mxCell>
                <mxCell id="115" value="" style="endArrow=classic;html=1;strokeWidth=2;exitX=0.5;exitY=1;exitDx=0;exitDy=0;entryX=0.5;entryY=0;entryDx=0;entryDy=0;" parent="1" source="51" target="49" edge="1">
                    <mxGeometry width="50" height="50" relative="1" as="geometry">
                        <mxPoint x="722" y="259" as="sourcePoint"/>
                        <mxPoint x="772" y="209" as="targetPoint"/>
                    </mxGeometry>
                </mxCell>
                <mxCell id="116" value="" style="endArrow=classic;html=1;strokeWidth=2;exitX=0.5;exitY=1;exitDx=0;exitDy=0;" parent="1" source="49" target="52" edge="1">
                    <mxGeometry width="50" height="50" relative="1" as="geometry">
                        <mxPoint x="722" y="369" as="sourcePoint"/>
                        <mxPoint x="772" y="319" as="targetPoint"/>
                    </mxGeometry>
                </mxCell>
                <mxCell id="117" value="" style="endArrow=classic;html=1;strokeWidth=2;exitX=0.5;exitY=1;exitDx=0;exitDy=0;entryX=0.5;entryY=0;entryDx=0;entryDy=0;" parent="1" source="52" target="95" edge="1">
                    <mxGeometry width="50" height="50" relative="1" as="geometry">
                        <mxPoint x="722" y="479" as="sourcePoint"/>
                        <mxPoint x="772" y="429" as="targetPoint"/>
                    </mxGeometry>
                </mxCell>
                <mxCell id="118" value="" style="endArrow=classic;html=1;strokeWidth=2;exitX=0.5;exitY=1;exitDx=0;exitDy=0;entryX=0.5;entryY=0;entryDx=0;entryDy=0;" parent="1" source="95" target="73" edge="1">
                    <mxGeometry width="50" height="50" relative="1" as="geometry">
                        <mxPoint x="722" y="479" as="sourcePoint"/>
                        <mxPoint x="772" y="429" as="targetPoint"/>
                    </mxGeometry>
                </mxCell>
                <mxCell id="119" value="" style="endArrow=classic;html=1;strokeWidth=2;exitX=0.5;exitY=1;exitDx=0;exitDy=0;entryX=0.5;entryY=0;entryDx=0;entryDy=0;" parent="1" source="73" target="50" edge="1">
                    <mxGeometry width="50" height="50" relative="1" as="geometry">
                        <mxPoint x="722" y="479" as="sourcePoint"/>
                        <mxPoint x="772" y="429" as="targetPoint"/>
                    </mxGeometry>
                </mxCell>
                <mxCell id="121" value="" style="endArrow=classic;html=1;strokeWidth=2;entryX=0.5;entryY=0;entryDx=0;entryDy=0;exitX=0.5;exitY=1;exitDx=0;exitDy=0;" parent="1" source="50" target="100" edge="1">
                    <mxGeometry width="50" height="50" relative="1" as="geometry">
                        <mxPoint x="722" y="559" as="sourcePoint"/>
                        <mxPoint x="772" y="509" as="targetPoint"/>
                    </mxGeometry>
                </mxCell>
                <mxCell id="122" value="" style="endArrow=classic;html=1;strokeWidth=2;exitX=0.5;exitY=1;exitDx=0;exitDy=0;entryX=0.5;entryY=0;entryDx=0;entryDy=0;" parent="1" source="100" target="67" edge="1">
                    <mxGeometry width="50" height="50" relative="1" as="geometry">
                        <mxPoint x="702" y="699" as="sourcePoint"/>
                        <mxPoint x="752" y="649" as="targetPoint"/>
                    </mxGeometry>
                </mxCell>
                <mxCell id="123" value="state::FAILURE" style="shape=hexagon;perimeter=hexagonPerimeter2;whiteSpace=wrap;html=1;fixedSize=1;fontSize=14;" parent="1" vertex="1">
                    <mxGeometry x="593" y="379" width="140" height="30" as="geometry"/>
                </mxCell>
                <mxCell id="125" value="logging?" style="rhombus;whiteSpace=wrap;html=1;fontSize=14;" parent="1" vertex="1">
                    <mxGeometry x="351.5" y="695" width="100" height="50" as="geometry"/>
                </mxCell>
                <mxCell id="126" value="shutdown logging" style="rounded=0;whiteSpace=wrap;html=1;" parent="1" vertex="1">
                    <mxGeometry x="341.5" y="797" width="120" height="30" as="geometry"/>
                </mxCell>
                <mxCell id="127" value="" style="endArrow=classic;html=1;strokeWidth=2;exitX=0.5;exitY=1;exitDx=0;exitDy=0;entryX=0.5;entryY=0;entryDx=0;entryDy=0;" parent="1" source="19" target="125" edge="1">
                    <mxGeometry width="50" height="50" relative="1" as="geometry">
                        <mxPoint x="420" y="635" as="sourcePoint"/>
                        <mxPoint x="470" y="585" as="targetPoint"/>
                    </mxGeometry>
                </mxCell>
                <mxCell id="128" value="Y" style="endArrow=classic;html=1;strokeWidth=2;exitX=0.5;exitY=1;exitDx=0;exitDy=0;entryX=0.5;entryY=0;entryDx=0;entryDy=0;" parent="1" source="125" target="126" edge="1">
                    <mxGeometry width="50" height="50" relative="1" as="geometry">
                        <mxPoint x="420" y="657" as="sourcePoint"/>
                        <mxPoint x="470" y="607" as="targetPoint"/>
                    </mxGeometry>
                </mxCell>
                <mxCell id="129" value="N" style="edgeStyle=segmentEdgeStyle;endArrow=classic;html=1;curved=0;rounded=0;endSize=8;startSize=8;strokeWidth=2;exitX=0;exitY=0.5;exitDx=0;exitDy=0;entryX=0.5;entryY=1;entryDx=0;entryDy=0;" parent="1" source="125" target="31" edge="1">
                    <mxGeometry width="50" height="50" relative="1" as="geometry">
                        <mxPoint x="420" y="695" as="sourcePoint"/>
                        <mxPoint x="470" y="645" as="targetPoint"/>
                    </mxGeometry>
                </mxCell>
                <mxCell id="130" value="" style="edgeStyle=segmentEdgeStyle;endArrow=classic;html=1;curved=0;rounded=0;endSize=8;startSize=8;strokeWidth=2;exitX=0;exitY=0.5;exitDx=0;exitDy=0;entryX=0.5;entryY=1;entryDx=0;entryDy=0;" parent="1" source="126" target="31" edge="1">
                    <mxGeometry width="50" height="50" relative="1" as="geometry">
                        <mxPoint x="420" y="695" as="sourcePoint"/>
                        <mxPoint x="470" y="645" as="targetPoint"/>
                        <Array as="points">
                            <mxPoint x="342" y="815"/>
                            <mxPoint x="105" y="815"/>
                        </Array>
                    </mxGeometry>
                </mxCell>
                <mxCell id="131" value="" style="endArrow=classic;html=1;strokeWidth=2;exitX=0.5;exitY=1;exitDx=0;exitDy=0;entryX=0.5;entryY=0;entryDx=0;entryDy=0;" parent="1" source="55" target="74" edge="1">
                    <mxGeometry width="50" height="50" relative="1" as="geometry">
                        <mxPoint x="712" y="1177" as="sourcePoint"/>
                        <mxPoint x="762" y="1127" as="targetPoint"/>
                    </mxGeometry>
                </mxCell>
                <mxCell id="132" value="" style="endArrow=classic;html=1;strokeWidth=2;exitX=0.5;exitY=1;exitDx=0;exitDy=0;entryX=0.5;entryY=0;entryDx=0;entryDy=0;" parent="1" source="74" target="111" edge="1">
                    <mxGeometry width="50" height="50" relative="1" as="geometry">
                        <mxPoint x="712" y="1177" as="sourcePoint"/>
                        <mxPoint x="762" y="1127" as="targetPoint"/>
                    </mxGeometry>
                </mxCell>
                <mxCell id="133" value="" style="endArrow=classic;html=1;strokeWidth=2;exitX=0;exitY=0.5;exitDx=0;exitDy=0;entryX=1;entryY=0.5;entryDx=0;entryDy=0;" parent="1" source="111" target="112" edge="1">
                    <mxGeometry width="50" height="50" relative="1" as="geometry">
                        <mxPoint x="712" y="1177" as="sourcePoint"/>
                        <mxPoint x="762" y="1127" as="targetPoint"/>
                    </mxGeometry>
                </mxCell>
                <mxCell id="134" value="" style="endArrow=classic;html=1;strokeWidth=2;exitX=0;exitY=0.5;exitDx=0;exitDy=0;entryX=1;entryY=0.5;entryDx=0;entryDy=0;" parent="1" source="112" target="113" edge="1">
                    <mxGeometry width="50" height="50" relative="1" as="geometry">
                        <mxPoint x="692" y="1177" as="sourcePoint"/>
                        <mxPoint x="742" y="1127" as="targetPoint"/>
                    </mxGeometry>
                </mxCell>
                <mxCell id="135" value="" style="edgeStyle=segmentEdgeStyle;endArrow=classic;html=1;rounded=1;endSize=8;startSize=8;strokeWidth=2;exitX=0;exitY=0.5;exitDx=0;exitDy=0;entryX=1;entryY=0.5;entryDx=0;entryDy=0;" parent="1" source="113" target="19" edge="1">
                    <mxGeometry width="50" height="50" relative="1" as="geometry">
                        <mxPoint x="630" y="1285" as="sourcePoint"/>
                        <mxPoint x="680" y="1235" as="targetPoint"/>
                        <Array as="points">
                            <mxPoint x="490" y="1181"/>
                            <mxPoint x="490" y="570"/>
                        </Array>
                    </mxGeometry>
                </mxCell>
                <mxCell id="139" value="N" style="edgeStyle=segmentEdgeStyle;endArrow=classic;html=1;curved=0;rounded=0;endSize=8;startSize=8;strokeWidth=2;exitX=0;exitY=0.5;exitDx=0;exitDy=0;entryX=0.5;entryY=0;entryDx=0;entryDy=0;" parent="1" source="52" target="123" edge="1">
                    <mxGeometry width="50" height="50" relative="1" as="geometry">
                        <mxPoint x="1142" y="689" as="sourcePoint"/>
                        <mxPoint x="1192" y="639" as="targetPoint"/>
                    </mxGeometry>
                </mxCell>
                <mxCell id="140" value="" style="endArrow=classic;html=1;strokeWidth=2;exitX=0;exitY=0.5;exitDx=0;exitDy=0;entryX=0.5;entryY=0;entryDx=0;entryDy=0;" parent="1" source="123" target="113" edge="1">
                    <mxGeometry width="50" height="50" relative="1" as="geometry">
                        <mxPoint x="1142" y="959" as="sourcePoint"/>
                        <mxPoint x="1192" y="909" as="targetPoint"/>
                        <Array as="points">
                            <mxPoint x="580" y="394"/>
                            <mxPoint x="580" y="690"/>
                            <mxPoint x="580" y="990"/>
                            <mxPoint x="653" y="990"/>
                        </Array>
                    </mxGeometry>
                </mxCell>
                <mxCell id="141" value="" style="endArrow=classic;html=1;strokeWidth=2;exitX=1;exitY=0;exitDx=0;exitDy=0;entryX=0.5;entryY=0;entryDx=0;entryDy=0;" parent="1" source="19" target="48" edge="1">
                    <mxGeometry width="50" height="50" relative="1" as="geometry">
                        <mxPoint x="1090" y="705" as="sourcePoint"/>
                        <mxPoint x="1140" y="655" as="targetPoint"/>
                        <Array as="points">
                            <mxPoint x="490" y="375"/>
                            <mxPoint x="500" y="325"/>
                            <mxPoint x="550" y="90"/>
                            <mxPoint x="640" y="90"/>
                            <mxPoint x="820" y="90"/>
                        </Array>
                    </mxGeometry>
                </mxCell>
                <mxCell id="142" value="&lt;h1 style=&quot;font-size: 14px;&quot;&gt;&lt;font style=&quot;font-size: 14px;&quot;&gt;mx::application::main()&lt;/font&gt;&lt;/h1&gt;" style="text;html=1;strokeColor=none;fillColor=none;spacing=5;spacingTop=-20;whiteSpace=wrap;overflow=hidden;rounded=0;horizontal=1;fontSize=14;" parent="1" vertex="1">
                    <mxGeometry x="300" y="207" width="210" height="27" as="geometry"/>
                </mxCell>
                <mxCell id="27" value="&lt;h1 style=&quot;font-size: 14px;&quot;&gt;&lt;font style=&quot;font-size: 14px;&quot;&gt;XWCApp::execute()&lt;/font&gt;&lt;/h1&gt;" style="text;html=1;strokeColor=none;fillColor=none;spacing=5;spacingTop=-20;whiteSpace=wrap;overflow=hidden;rounded=0;horizontal=1;fontSize=14;" parent="1" vertex="1">
                    <mxGeometry x="558" y="129" width="210" height="27" as="geometry"/>
                </mxCell>
                <mxCell id="143" value="&lt;h1 style=&quot;font-size: 14px;&quot;&gt;&lt;font style=&quot;font-size: 14px;&quot;&gt;~XWCApp()&lt;/font&gt;&lt;/h1&gt;" style="text;html=1;strokeColor=none;fillColor=none;spacing=5;spacingTop=-20;whiteSpace=wrap;overflow=hidden;rounded=0;horizontal=1;fontSize=14;" parent="1" vertex="1">
                    <mxGeometry x="280" y="665" width="210" height="27" as="geometry"/>
                </mxCell>
                <mxCell id="144" value="record GIT state" style="rounded=0;whiteSpace=wrap;html=1;" parent="1" vertex="1">
                    <mxGeometry x="332.25" y="70" width="138.5" height="30" as="geometry"/>
                </mxCell>
                <mxCell id="148" value="&lt;h1 style=&quot;font-size: 14px;&quot;&gt;&lt;font style=&quot;font-size: 14px;&quot;&gt;XWCApp()&lt;/font&gt;&lt;/h1&gt;" style="text;html=1;strokeColor=none;fillColor=none;spacing=5;spacingTop=-20;whiteSpace=wrap;overflow=hidden;rounded=0;horizontal=1;fontSize=14;" parent="1" vertex="1">
                    <mxGeometry x="290" y="50" width="210" height="27" as="geometry"/>
                </mxCell>
                <mxCell id="150" value="" style="endArrow=classic;html=1;exitX=0.5;exitY=1;exitDx=0;exitDy=0;strokeWidth=2;" parent="1" source="144" target="96" edge="1">
                    <mxGeometry width="50" height="50" relative="1" as="geometry">
                        <mxPoint x="850" y="620" as="sourcePoint"/>
                        <mxPoint x="900" y="570" as="targetPoint"/>
                    </mxGeometry>
                </mxCell>
                <mxCell id="151" value="" style="edgeStyle=segmentEdgeStyle;endArrow=classic;html=1;curved=0;rounded=0;endSize=8;startSize=8;strokeWidth=2;exitX=1;exitY=0.5;exitDx=0;exitDy=0;" parent="1" source="2" target="144" edge="1">
                    <mxGeometry width="50" height="50" relative="1" as="geometry">
                        <mxPoint x="850" y="650" as="sourcePoint"/>
                        <mxPoint x="900" y="600" as="targetPoint"/>
                    </mxGeometry>
                </mxCell>
                <mxCell id="152" value="derivedT::appStartup()" style="rounded=0;whiteSpace=wrap;html=1;" parent="1" vertex="1">
                    <mxGeometry x="1220" y="439" width="160" height="36" as="geometry"/>
                </mxCell>
                <mxCell id="153" value="derivedT::appLogic()" style="rounded=0;whiteSpace=wrap;html=1;strokeColor=#80FF00;strokeWidth=2;" parent="1" vertex="1">
                    <mxGeometry x="1235" y="785" width="160" height="36" as="geometry"/>
                </mxCell>
                <mxCell id="154" value="derivedT::appShutdown()" style="rounded=0;whiteSpace=wrap;html=1;" parent="1" vertex="1">
                    <mxGeometry x="1220" y="1103" width="160" height="36" as="geometry"/>
                </mxCell>
                <mxCell id="155" value="derivedT::whilePowerOff()" style="rounded=0;whiteSpace=wrap;html=1;" parent="1" vertex="1">
                    <mxGeometry x="1226.25" y="858" width="160" height="36" as="geometry"/>
                </mxCell>
                <mxCell id="156" value="derivedT::onPowerOff()" style="rounded=0;whiteSpace=wrap;html=1;" parent="1" vertex="1">
                    <mxGeometry x="1220" y="939.5" width="160" height="36" as="geometry"/>
                </mxCell>
                <mxCell id="157" value="" style="endArrow=classic;html=1;strokeWidth=2;exitX=1;exitY=0.5;exitDx=0;exitDy=0;entryX=0;entryY=0.5;entryDx=0;entryDy=0;dashed=1;" parent="1" source="73" target="152" edge="1">
                    <mxGeometry width="50" height="50" relative="1" as="geometry">
                        <mxPoint x="885" y="564" as="sourcePoint"/>
                        <mxPoint x="935" y="514" as="targetPoint"/>
                    </mxGeometry>
                </mxCell>
                <mxCell id="158" value="" style="endArrow=classic;html=1;strokeWidth=4;exitX=1;exitY=0.5;exitDx=0;exitDy=0;entryX=0;entryY=0.5;entryDx=0;entryDy=0;dashed=1;fillColor=#60a917;strokeColor=#80FF00;" parent="1" source="72" target="153" edge="1">
                    <mxGeometry width="50" height="50" relative="1" as="geometry">
                        <mxPoint x="885" y="744" as="sourcePoint"/>
                        <mxPoint x="935" y="694" as="targetPoint"/>
                    </mxGeometry>
                </mxCell>
                <mxCell id="159" value="" style="endArrow=classic;html=1;strokeWidth=2;exitX=1;exitY=0.5;exitDx=0;exitDy=0;entryX=0;entryY=0.5;entryDx=0;entryDy=0;dashed=1;" parent="1" target="155" edge="1">
                    <mxGeometry width="50" height="50" relative="1" as="geometry">
                        <mxPoint x="1038" y="835.5" as="sourcePoint"/>
                        <mxPoint x="1095" y="835.5" as="targetPoint"/>
                        <Array as="points">
                            <mxPoint x="1150" y="837"/>
                            <mxPoint x="1150" y="877"/>
                        </Array>
                    </mxGeometry>
                </mxCell>
                <mxCell id="160" value="" style="endArrow=classic;html=1;dashed=1;strokeWidth=2;exitX=1;exitY=0.5;exitDx=0;exitDy=0;entryX=0;entryY=0.5;entryDx=0;entryDy=0;" parent="1" source="69" target="156" edge="1">
                    <mxGeometry width="50" height="50" relative="1" as="geometry">
                        <mxPoint x="1370" y="947" as="sourcePoint"/>
                        <mxPoint x="1220" y="965" as="targetPoint"/>
                    </mxGeometry>
                </mxCell>
                <mxCell id="161" value="" style="endArrow=classic;html=1;dashed=1;strokeWidth=2;exitX=1;exitY=0.5;exitDx=0;exitDy=0;entryX=0;entryY=0.5;entryDx=0;entryDy=0;" parent="1" source="74" target="154" edge="1">
                    <mxGeometry width="50" height="50" relative="1" as="geometry">
                        <mxPoint x="1370" y="947" as="sourcePoint"/>
                        <mxPoint x="1420" y="897" as="targetPoint"/>
                    </mxGeometry>
                </mxCell>
                <mxCell id="162" value="&lt;h1 style=&quot;font-size: 14px;&quot;&gt;&lt;font style=&quot;font-size: 14px;&quot;&gt;derivedT : XWCApp&lt;/font&gt;&lt;/h1&gt;" style="text;html=1;strokeColor=none;fillColor=none;spacing=5;spacingTop=-20;whiteSpace=wrap;overflow=hidden;rounded=0;horizontal=1;fontSize=14;" parent="1" vertex="1">
                    <mxGeometry x="280" y="-60" width="210" height="27" as="geometry"/>
                </mxCell>
                <mxCell id="163" value="Y" style="text;html=1;strokeColor=none;fillColor=none;align=center;verticalAlign=middle;whiteSpace=wrap;rounded=0;" parent="1" vertex="1">
                    <mxGeometry x="808" y="219" width="60" height="30" as="geometry"/>
                </mxCell>
                <mxCell id="164" value="Y" style="text;html=1;strokeColor=none;fillColor=none;align=center;verticalAlign=middle;whiteSpace=wrap;rounded=0;" parent="1" vertex="1">
                    <mxGeometry x="808" y="349" width="60" height="30" as="geometry"/>
                </mxCell>
                <mxCell id="165" value="Y" style="text;html=1;strokeColor=none;fillColor=none;align=center;verticalAlign=middle;whiteSpace=wrap;rounded=0;" parent="1" vertex="1">
                    <mxGeometry x="808" y="606" width="60" height="30" as="geometry"/>
                </mxCell>
                <mxCell id="167" value="state::FAILURE" style="shape=hexagon;perimeter=hexagonPerimeter2;whiteSpace=wrap;html=1;fixedSize=1;fontSize=14;" parent="1" vertex="1">
                    <mxGeometry x="587" y="569" width="132" height="30" as="geometry"/>
                </mxCell>
                <mxCell id="168" value="appShutdown()" style="rounded=0;whiteSpace=wrap;html=1;fontSize=14;" parent="1" vertex="1">
                    <mxGeometry x="593" y="695" width="120" height="30" as="geometry"/>
                </mxCell>
                <mxCell id="170" value="N" style="endArrow=classic;html=1;exitX=0;exitY=0.5;exitDx=0;exitDy=0;entryX=1;entryY=0.5;entryDx=0;entryDy=0;strokeWidth=2;" parent="1" source="100" target="167" edge="1">
                    <mxGeometry width="50" height="50" relative="1" as="geometry">
                        <mxPoint x="740" y="690" as="sourcePoint"/>
                        <mxPoint x="790" y="640" as="targetPoint"/>
                    </mxGeometry>
                </mxCell>
                <mxCell id="171" value="" style="endArrow=classic;html=1;exitX=0.5;exitY=1;exitDx=0;exitDy=0;entryX=0.5;entryY=0;entryDx=0;entryDy=0;strokeWidth=2;" parent="1" source="167" target="168" edge="1">
                    <mxGeometry width="50" height="50" relative="1" as="geometry">
                        <mxPoint x="740" y="690" as="sourcePoint"/>
                        <mxPoint x="790" y="640" as="targetPoint"/>
                    </mxGeometry>
                </mxCell>
                <mxCell id="172" value="" style="endArrow=classic;html=1;exitX=0.5;exitY=1;exitDx=0;exitDy=0;entryX=0.5;entryY=0;entryDx=0;entryDy=0;strokeWidth=2;" parent="1" source="168" target="113" edge="1">
                    <mxGeometry width="50" height="50" relative="1" as="geometry">
                        <mxPoint x="740" y="690" as="sourcePoint"/>
                        <mxPoint x="790" y="640" as="targetPoint"/>
                    </mxGeometry>
                </mxCell>
                <mxCell id="173" value="checkConfig()" style="rounded=0;whiteSpace=wrap;html=1;" vertex="1" parent="1">
                    <mxGeometry x="355" y="340" width="100" height="24" as="geometry"/>
                </mxCell>
            </root>
        </mxGraphModel>
    </diagram>
</mxfile>
